<?xml version="1.0" standalone="no"?>
<!DOCTYPE svg PUBLIC "-//W3C//DTD SVG 20010904//EN" "http://www.w3.org/TR/2001/REC-SVG-20010904/DTD/svg10.dtd">
<svg
  version="1.0"
  xmlns="http://www.w3.org/2000/svg"
  height="100%"
  viewBox="0 0 224.000000 1836.000000"
  style="background-color: currentColor"
>
  <g
    transform="translate(0.000000,1836.000000) scale(0.100000,-0.100000)"
    fill="#0a0a0a"
    stroke="none"
  >
    <path
      d="M0 9180 l0 -9180 1120 0 1120 0 0 9180 0 9180 -1120 0 -1120 0 0
-9180z m1365 8726 c107 -50 123 -55 215 -65 89 -10 198 -39 224 -60 6 -4 28
-14 49 -21 45 -14 66 -50 74 -124 l5 -51 -75 -52 c-89 -60 -145 -82 -227 -86
-53 -3 -63 -8 -98 -42 -22 -20 -69 -52 -106 -70 -82 -40 -71 -47 62 -39 107 6
145 -5 150 -43 4 -30 -43 -53 -111 -53 -30 0 -94 -7 -143 -16 -92 -16 -188
-13 -226 7 -17 9 -19 18 -15 49 5 37 4 38 -32 44 -27 4 -49 -1 -86 -19 -28
-13 -59 -25 -70 -25 -11 0 -28 -8 -36 -18 -12 -13 -43 -23 -105 -32 -105 -15
-119 -15 -204 0 -70 12 -100 35 -100 75 0 14 -8 26 -19 30 -30 9 -101 87 -101
110 0 46 35 56 92 26 42 -23 42 -23 112 61 77 92 99 102 215 95 115 -7 159 4
90 21 -84 21 -86 75 -4 106 52 20 56 30 17 44 -16 5 -46 25 -66 42 -51 45 -47
79 9 96 87 26 126 30 290 32 160 2 173 1 220 -22z m-196 -1151 c16 -8 43 -37
60 -64 31 -48 33 -55 38 -180 l6 -131 41 6 c23 3 56 10 74 16 21 6 76 7 145 3
62 -4 129 -9 150 -10 21 -1 41 -5 45 -9 4 -4 10 -40 14 -79 3 -40 9 -83 13
-97 14 -52 -36 -81 -165 -97 -60 -7 -81 -7 -180 1 -95 8 -559 8 -571 0 -5 -3
-101 -6 -214 -8 -243 -4 -240 -5 -230 83 8 74 32 139 54 146 10 3 123 5 252 4
129 0 240 0 247 0 21 2 13 22 -23 62 -43 48 -45 80 -8 157 83 173 169 241 252
197z m-593 -917 c3 -11 3 -36 -1 -55 l-6 -35 123 7 c68 4 173 11 233 15 90 7
405 5 578 -5 46 -2 53 7 31 40 -16 25 -16 27 6 50 13 14 29 25 36 25 16 0 49
-47 57 -81 5 -19 15 -28 37 -33 24 -4 34 -15 50 -52 11 -25 20 -52 20 -60 0
-8 5 -14 10 -14 17 0 12 -80 -5 -86 -26 -10 -61 5 -73 31 -6 14 -18 25 -25 25
-7 0 -29 16 -47 35 l-35 36 -270 -1 c-247 -1 -635 -20 -711 -36 -29 -5 -32
-10 -37 -51 -3 -30 -13 -54 -29 -70 l-25 -25 -29 25 c-29 25 -29 26 -29 144 0
112 1 120 28 160 15 23 35 43 45 45 25 6 61 -12 68 -34z m748 -538 c15 0 41
-7 57 -15 15 -8 39 -15 52 -15 14 0 50 -23 91 -57 38 -32 76 -62 85 -68 9 -5
37 -26 61 -45 24 -19 61 -43 82 -52 21 -9 43 -29 50 -43 10 -22 9 -29 -8 -46
-22 -22 -52 -29 -134 -34 -64 -4 -143 -19 -183 -34 -16 -6 -45 -11 -66 -11
-21 0 -56 -6 -78 -14 -22 -8 -51 -12 -66 -9 -14 3 -47 -2 -74 -10 -29 -10
-104 -18 -193 -22 -130 -5 -150 -3 -199 15 -65 25 -122 63 -178 119 -35 35
-45 40 -71 35 -33 -7 -92 21 -92 42 0 28 50 70 106 88 47 16 69 31 108 74 99
109 142 115 650 102z m-594 -776 c0 -12 5 -26 10 -29 6 -3 10 -19 10 -35 0
-16 -4 -32 -10 -35 -21 -13 -8 -53 39 -123 78 -115 127 -265 123 -377 -3 -101
-20 -140 -96 -231 -31 -38 -75 -45 -110 -19 -11 8 -31 15 -44 15 -52 0 -137
78 -177 163 -18 39 -22 102 -14 237 5 84 43 180 95 239 42 48 74 118 74 164 0
39 30 65 68 59 25 -3 32 -9 32 -28z m951 -75 c20 -20 20 -27 14 -134 l-7 -114
23 -6 c13 -3 60 -8 103 -13 l80 -7 9 -34 c5 -23 5 -37 -3 -45 -12 -12 -118
-14 -162 -3 -35 9 -62 -16 -51 -47 4 -11 8 -50 8 -85 0 -71 -13 -89 -58 -77
-36 9 -47 33 -55 124 l-7 77 -100 0 c-100 0 -106 1 -222 51 -24 10 -33 20 -33
38 0 44 18 49 140 36 61 -6 133 -8 161 -4 60 8 64 15 74 129 12 124 39 161 86
114z m64 -844 c29 -40 51 -106 61 -180 23 -186 3 -381 -45 -438 -16 -20 -6
-37 22 -37 12 -1 51 -9 87 -18 70 -19 84 -38 60 -82 -10 -19 -17 -21 -48 -15
-21 4 -77 9 -125 12 l-89 4 6 -218 c4 -120 10 -237 15 -260 7 -34 4 -48 -10
-73 -21 -34 -35 -37 -66 -15 -36 25 -62 200 -50 335 21 234 22 233 -107 219
-74 -8 -93 -7 -113 6 -51 34 -15 85 59 85 26 0 48 2 48 5 0 3 -11 27 -24 53
-26 51 -51 146 -61 229 -11 101 48 268 126 350 89 95 199 112 254 38z m-964
-156 c32 -16 56 -44 79 -89 19 -37 20 -54 17 -193 -3 -112 -9 -164 -21 -197
-31 -80 -31 -77 11 -84 21 -3 65 -9 98 -12 68 -7 85 -17 85 -49 0 -42 -19 -47
-158 -39 l-129 7 -5 -69 c-7 -89 -2 -240 11 -333 10 -67 9 -76 -10 -102 -11
-16 -23 -29 -26 -29 -19 0 -63 38 -68 59 -9 35 -27 190 -26 221 0 14 1 42 1
63 1 20 7 70 15 110 8 44 10 76 4 81 -5 6 -50 12 -101 14 -96 4 -128 17 -128
52 0 33 24 51 75 55 119 11 148 14 152 19 3 3 -17 31 -45 63 -66 76 -112 177
-112 248 0 32 5 57 14 64 7 6 16 24 19 40 14 69 181 136 248 100z m776 -1495
c23 -27 49 -69 58 -94 9 -25 25 -64 35 -87 10 -23 26 -79 35 -125 8 -45 18
-91 21 -100 3 -10 -6 -29 -20 -45 -40 -45 -70 -86 -86 -116 -12 -25 -12 -32 2
-60 59 -119 100 -211 118 -269 18 -57 20 -75 11 -122 -6 -31 -8 -63 -4 -72 6
-15 -7 -93 -32 -194 -7 -30 -18 -77 -25 -105 -7 -27 -14 -57 -17 -65 -2 -10 6
-22 22 -30 40 -21 60 -66 44 -97 -7 -13 -22 -25 -33 -28 -82 -17 -242 -30
-356 -29 -74 1 -164 1 -200 1 -206 -1 -282 3 -312 17 -18 8 -55 22 -83 32 -27
9 -59 25 -69 35 -24 23 -15 48 47 122 59 72 98 107 120 107 10 0 30 6 45 14
16 8 72 16 132 20 58 3 126 11 151 19 59 18 134 73 154 114 24 49 20 57 -22
49 -21 -4 -69 -9 -108 -12 -38 -3 -98 -12 -132 -20 -142 -34 -304 39 -237 107
23 22 183 46 359 53 153 6 149 4 140 90 -3 39 -10 74 -14 79 -4 4 -21 1 -37
-7 -21 -11 -68 -16 -162 -17 l-134 -1 -30 28 c-33 32 -118 204 -118 239 0 8
-7 15 -15 15 -15 0 -85 -134 -85 -163 0 -27 -72 -107 -96 -107 -35 0 -92 55
-105 102 -9 36 -7 47 17 102 15 33 33 67 41 74 7 7 13 19 13 26 0 7 14 34 31
62 18 27 50 83 72 124 54 103 79 139 100 146 27 9 57 -23 57 -61 0 -58 38
-182 68 -224 25 -35 55 -99 76 -163 6 -21 48 -23 181 -7 105 12 119 23 129 98
4 28 11 53 16 56 6 3 10 18 10 32 0 23 -3 24 -27 17 -16 -4 -41 -8 -57 -8 -24
-1 -31 5 -40 31 -6 17 -21 39 -34 50 -16 13 -22 29 -22 58 0 134 24 191 119
273 73 64 140 93 201 88 38 -3 50 -11 87 -52z m-120 -1895 c28 -21 72 -66 98
-99 36 -47 52 -60 73 -60 21 -1 35 -12 65 -55 20 -29 37 -61 37 -69 0 -18 -35
-56 -51 -56 -6 0 -75 65 -155 145 -79 80 -150 145 -157 145 -17 0 -42 -28 -96
-107 -44 -63 -47 -87 -16 -113 8 -6 24 -40 35 -76 12 -35 29 -68 38 -73 10 -5
62 -11 117 -15 140 -10 226 -26 251 -48 11 -10 33 -46 48 -81 16 -34 35 -74
42 -89 8 -15 14 -56 14 -97 0 -70 0 -70 -37 -96 -37 -24 -42 -25 -203 -25
-204 1 -314 24 -372 78 -44 40 -35 72 24 87 15 4 32 13 38 20 13 16 -45 23
-186 23 l-91 0 -14 -30 c-19 -42 -90 -68 -189 -68 -41 0 -106 -7 -145 -15
l-70 -15 -28 29 c-28 27 -28 29 -14 58 11 20 28 33 54 41 68 20 161 31 215 25
65 -7 83 7 68 53 -5 16 -12 46 -15 67 -5 30 -10 37 -29 37 -13 0 -35 9 -49 20
-16 13 -40 20 -66 20 -54 0 -105 22 -127 54 -25 39 -30 151 -9 200 28 65 101
129 170 148 97 28 129 30 198 12 73 -18 137 -63 137 -97 0 -50 12 -68 39 -65
18 2 32 14 46 41 25 49 157 180 187 188 38 9 70 -2 125 -42z m-96 -1177 c-4
-213 -3 -215 73 -211 28 1 91 -1 139 -5 48 -5 111 -9 140 -10 l52 -1 0 -45 0
-45 -40 2 c-182 10 -346 9 -355 -2 -13 -16 -4 -358 10 -385 8 -16 6 -22 -15
-36 -54 -36 -115 24 -115 114 0 21 5 43 11 49 7 7 10 50 8 114 -1 57 -2 140 0
184 1 44 4 163 6 265 2 102 4 189 4 193 1 5 20 7 44 5 l42 -3 -4 -183z m-421
33 c84 -44 180 -232 180 -356 0 -50 -70 -234 -114 -298 -14 -20 -29 -48 -35
-63 -7 -18 -29 -36 -73 -58 -35 -17 -71 -36 -80 -43 -14 -9 -32 -8 -87 6 -119
31 -162 64 -224 175 -39 69 -58 258 -34 326 8 22 18 54 22 70 6 30 82 148 99
155 6 2 19 13 31 25 60 60 138 88 224 81 35 -3 76 -12 91 -20z m-318 -1449
c104 -24 112 -25 275 -15 176 10 219 11 293 3 125 -13 336 -22 420 -17 130 7
141 6 167 -19 52 -48 11 -141 -83 -189 -48 -24 -147 -51 -199 -53 -386 -21
-727 -14 -812 16 -90 32 -223 135 -223 173 0 12 -7 30 -15 41 -17 23 -19 48
-4 76 13 23 21 23 181 -16z m931 -607 c45 -30 87 -76 87 -97 0 -11 18 -46 43
-83 15 -22 17 -42 13 -125 -7 -138 -32 -192 -112 -240 -17 -10 -17 -12 3 -37
11 -14 37 -61 58 -104 94 -197 86 -162 81 -323 -3 -137 -11 -247 -22 -297 -7
-34 -28 -28 -59 17 l-28 41 12 102 c7 56 17 133 21 170 8 63 6 72 -22 137 -48
109 -55 97 -62 -107 -7 -218 -14 -289 -30 -302 -7 -6 -108 -11 -241 -13 l-230
-3 2 -30 c0 -16 6 -50 13 -75 6 -25 16 -65 23 -90 15 -61 20 -182 8 -200 -8
-12 -37 -16 -129 -18 -100 -3 -120 -1 -132 13 -21 26 -1 68 38 81 57 18 60 27
62 174 1 74 2 143 1 153 -2 35 -20 15 -39 -45 -72 -223 -118 -294 -234 -362
-51 -30 -133 -47 -167 -35 -15 6 -21 17 -21 38 0 34 22 51 68 51 50 0 141 88
155 150 3 14 13 54 22 90 9 36 20 94 25 130 5 36 12 76 15 89 6 25 75 91 103
100 10 3 103 5 207 5 l190 1 -1 100 c0 113 -7 132 -74 208 l-43 48 -134 -7
-134 -7 -30 29 c-27 26 -30 33 -24 69 5 33 18 51 75 103 38 34 90 94 115 132
25 38 51 72 56 76 17 10 59 -25 59 -49 0 -12 -11 -39 -25 -59 -14 -20 -25 -41
-25 -45 0 -5 -18 -30 -40 -57 -52 -62 -52 -80 -2 -72 20 3 62 8 92 12 68 8
100 20 100 36 0 7 -17 32 -38 55 l-38 41 6 100 c5 83 10 106 31 138 13 22 33
56 44 77 28 54 82 103 140 126 73 29 113 27 168 -10z m-424 -1983 c43 -28 79
-73 90 -114 7 -25 11 -27 67 -28 97 -2 122 -12 179 -70 103 -104 143 -187 110
-224 -17 -18 -16 -21 9 -50 14 -18 26 -37 27 -43 1 -7 3 -36 5 -66 3 -33 12
-63 24 -78 15 -20 19 -36 16 -70 -11 -105 -58 -176 -125 -187 -128 -22 -222
-15 -297 20 l-35 17 -27 -32 c-42 -50 -114 -71 -247 -71 -81 0 -130 5 -185 21
-41 11 -93 25 -115 31 -22 5 -47 14 -55 19 -8 5 -24 13 -35 18 -12 5 -27 17
-35 26 -17 21 -14 89 5 124 8 14 21 46 30 71 17 53 8 69 -31 51 -22 -10 -31
-9 -51 4 -24 16 -24 16 -18 158 5 122 12 173 32 222 13 32 37 61 107 124 66
60 84 71 114 71 29 0 43 -8 78 -46 l43 -45 15 28 c22 40 45 64 91 95 82 56
151 63 214 24z m-603 -1124 c19 -13 24 -42 13 -95 -5 -28 -7 -64 -4 -79 l6
-26 92 5 c74 4 95 2 105 -9 17 -21 26 -187 12 -223 -24 -61 -54 -414 -53 -620
l1 -159 63 -13 c35 -7 84 -16 109 -21 153 -28 337 -193 260 -233 -26 -13 -118
-39 -159 -44 -22 -3 -70 -12 -107 -21 -55 -12 -79 -13 -147 -3 -84 12 -112 22
-182 63 -69 40 -68 35 -77 496 -4 228 -7 462 -7 520 1 58 0 120 -1 138 -7 166
1 294 22 320 12 13 37 16 54 4z m706 -44 c7 -13 15 -50 18 -83 l5 -60 49 -6
c26 -3 71 -2 100 2 47 7 53 5 74 -19 21 -24 23 -34 18 -98 -3 -39 -10 -84 -16
-98 -15 -41 -12 -342 5 -454 40 -266 47 -321 41 -330 -13 -21 7 -41 47 -48 23
-3 51 -13 62 -20 11 -8 29 -14 40 -14 57 -1 188 -64 238 -115 54 -55 47 -81
-28 -115 -29 -12 -52 -18 -160 -39 -27 -5 -62 -14 -76 -21 -26 -12 -131 -4
-239 18 -67 14 -74 19 -102 70 -71 129 -80 160 -80 265 0 45 -4 102 -9 127 -5
25 -11 74 -13 110 -3 36 -10 103 -16 148 -10 75 -15 210 -24 603 -2 70 -7 133
-11 140 -5 8 2 21 21 36 36 28 40 29 56 1z m426 -1749 c4 -54 -47 -106 -118
-120 -111 -22 -427 -3 -600 36 -36 9 -104 15 -151 15 -81 0 -89 -2 -130 -32
l-44 -32 30 -7 c17 -4 53 -7 80 -8 32 -1 77 -13 125 -33 69 -30 86 -33 203
-36 71 -2 241 1 379 7 222 10 253 10 274 -4 30 -20 30 -34 -1 -67 -19 -21 -37
-28 -82 -32 -32 -4 -83 -10 -113 -14 -30 -4 -102 -4 -160 -1 -58 4 -176 7
-262 8 -91 1 -169 6 -185 12 -15 7 -41 17 -58 25 -16 7 -46 20 -67 28 -26 12
-68 16 -150 16 -127 0 -138 5 -138 59 0 26 10 49 38 83 42 53 90 93 99 84 4
-3 18 1 32 10 37 25 216 22 356 -7 92 -19 144 -22 318 -23 l209 -1 26 32 c25
29 53 43 77 39 6 -2 11 -18 13 -37z m-750 -524 c23 -15 44 -36 47 -47 8 -23
-3 -96 -16 -104 -5 -3 -9 -14 -9 -25 0 -22 12 -23 148 -9 59 6 117 6 160 0 37
-5 111 -12 164 -15 54 -3 109 -10 123 -15 36 -14 129 -12 143 2 7 7 12 39 12
72 0 75 16 110 52 114 21 3 30 -3 41 -25 22 -43 47 -137 47 -177 0 -59 -41
-137 -88 -169 -23 -15 -42 -30 -42 -33 0 -10 22 -48 69 -119 49 -75 102 -180
95 -188 -3 -3 4 -22 15 -43 37 -69 26 -137 -39 -243 -49 -79 -90 -80 -110 -3
-7 26 -23 76 -35 112 -13 36 -38 113 -56 173 -24 78 -37 107 -48 107 -20 -1
-81 -55 -106 -95 -33 -51 -125 -163 -139 -168 -23 -9 -56 22 -56 52 0 15 4 31
9 36 15 15 111 311 111 340 l0 25 -104 0 c-65 0 -116 -5 -137 -14 -19 -7 -39
-12 -45 -9 -30 11 -34 -24 -25 -193 5 -93 12 -180 15 -194 4 -14 9 -50 12 -81
6 -49 4 -58 -18 -83 -24 -28 -25 -28 -50 -12 -14 9 -31 29 -37 44 -12 32 -34
191 -33 245 1 38 -14 51 -24 20 -3 -10 -9 -27 -14 -38 -23 -58 -40 -105 -53
-145 -45 -135 -68 -167 -110 -156 -14 3 -28 14 -32 25 -10 34 29 180 94 346
77 194 85 259 38 303 -26 24 -54 32 -128 36 -30 2 -63 4 -74 5 -11 1 -38 17
-59 35 -39 34 -39 35 -33 92 4 42 14 69 36 100 17 23 31 47 31 52 0 18 88 89
122 99 43 12 84 3 136 -32z"
    />
    <path
      d="M998 17843 c-38 -9 -10 -33 36 -33 70 0 122 -46 91 -80 -9 -10 -14
-24 -10 -29 10 -18 67 -13 108 9 21 11 64 23 97 27 96 10 103 41 17 81 -33 15
-71 20 -182 24 -77 3 -148 3 -157 1z"
    />
    <path
      d="M1679 17728 c-1 -2 -2 -40 -4 -86 -4 -106 4 -112 80 -62 17 11 40 25
52 31 24 13 36 35 28 49 -3 5 -33 19 -66 31 -33 12 -62 26 -65 30 -5 8 -23 13
-25 7z"
    />
    <path
      d="M1478 17702 c-25 -15 -28 -23 -28 -69 0 -65 24 -86 92 -81 l43 3 0
68 c0 56 -3 71 -19 83 -25 18 -54 17 -88 -4z"
    />
    <path
      d="M1255 17627 c-28 -14 -68 -22 -137 -26 -92 -6 -127 -18 -115 -39 4
-5 41 -7 84 -5 43 3 87 4 98 3 105 -6 155 14 155 60 0 25 -4 30 -22 29 -13 -1
-41 -10 -63 -22z"
    />
    <path
      d="M715 17487 c-8 -4 -35 -35 -61 -68 -62 -80 -57 -104 21 -114 66 -8
129 1 146 21 7 9 32 14 71 14 33 0 83 6 111 14 29 8 108 17 177 19 118 4 129
6 193 38 73 36 86 61 41 81 -20 10 -35 8 -78 -6 -66 -23 -334 -28 -406 -9 -54
15 -195 22 -215 10z"
    />
    <path
      d="M1093 16655 c-29 -20 -91 -106 -104 -144 -10 -27 -8 -35 20 -73 27
-37 31 -50 31 -108 0 -55 -3 -67 -20 -78 -49 -30 -10 -35 264 -28 149 4 293 9
319 12 45 6 48 8 45 32 -3 23 -10 28 -58 40 -67 16 -231 9 -293 -13 -66 -23
-105 -20 -119 10 -9 21 -8 32 5 61 21 43 21 68 2 167 -15 79 -29 116 -49 129
-15 11 -19 10 -43 -7z"
    />
    <path
      d="M578 16242 c-71 -3 -78 -5 -78 -24 0 -20 3 -20 168 -16 96 2 175 9
187 15 16 9 17 13 5 17 -21 7 -189 12 -282 8z"
    />
    <path
      d="M910 16230 c0 -5 7 -7 15 -4 8 4 15 8 15 10 0 2 -7 4 -15 4 -8 0 -15
-4 -15 -10z"
    />
    <path
      d="M1314 15202 c-7 -4 -11 -46 -10 -112 0 -58 -3 -114 -8 -124 -8 -17
-6 -18 15 -12 26 8 126 29 224 46 33 6 61 13 64 16 13 12 -160 150 -214 170
-16 6 -37 14 -45 18 -8 3 -20 2 -26 -2z"
    />
    <path
      d="M980 15158 c-41 -21 -104 -50 -140 -64 -36 -15 -69 -30 -75 -34 -5
-4 -23 -10 -38 -14 -38 -9 -32 -33 18 -68 64 -45 144 -68 234 -68 44 0 82 4
85 9 3 5 1 47 -5 94 -9 63 -9 98 -1 129 6 24 8 46 4 49 -4 3 -41 -12 -82 -33z"
    />
    <path
      d="M746 13821 c-4 -7 -5 -15 -2 -18 9 -9 19 4 14 18 -4 11 -6 11 -12 0z"
    />
    <path
      d="M1623 13552 c-22 -3 -112 -100 -126 -136 -21 -52 -47 -159 -47 -193
1 -21 7 -56 15 -78 8 -22 15 -45 15 -52 0 -15 70 -136 84 -145 26 -18 55 -7
76 27 12 19 25 35 29 35 15 0 40 84 51 169 7 50 9 125 4 185 -9 140 -41 198
-101 188z"
    />
    <path
      d="M670 13352 c-44 -22 -80 -75 -80 -118 0 -35 29 -96 67 -140 14 -16
41 -50 61 -76 19 -26 39 -45 43 -43 11 8 21 93 24 220 3 101 1 124 -13 142
-24 30 -62 35 -102 15z"
    />
    <path
      d="M1408 11894 c-28 -15 -37 -47 -17 -60 6 -4 24 -35 40 -70 33 -72 43
-74 83 -13 34 51 33 67 -10 117 -38 45 -54 49 -96 26z"
    />
    <path
      d="M1273 11743 c-14 -36 -20 -69 -16 -86 6 -28 7 -28 57 -22 28 4 54 9
59 12 12 7 8 30 -7 42 -8 7 -18 27 -21 44 -7 30 -31 67 -44 67 -3 0 -16 -26
-28 -57z"
    />
    <path
      d="M1539 11634 c-12 -15 -47 -36 -116 -69 -33 -15 -41 -29 -24 -39 16
-10 19 -56 5 -94 -7 -20 -13 -56 -14 -80 0 -28 -5 -45 -15 -48 -19 -8 -19 -34
0 -48 19 -14 48 -291 34 -318 -6 -12 -6 -25 1 -37 29 -55 -6 -158 -76 -226
-65 -63 -171 -98 -339 -110 -49 -4 -103 -14 -120 -23 -42 -21 -95 -65 -95 -78
0 -16 67 -43 125 -52 28 -4 97 -5 154 -2 57 3 136 2 175 -1 66 -5 335 8 345
17 3 3 -1 10 -7 16 -17 17 -15 55 9 144 11 44 24 102 29 131 4 28 11 57 15 62
3 6 10 55 14 108 8 96 8 100 -25 188 -18 50 -51 126 -73 169 -60 117 -57 171
16 280 38 55 38 57 18 96 -18 35 -18 35 -36 14z"
    />
    <path
      d="M690 11441 c0 -11 -4 -22 -9 -25 -16 -10 -81 -127 -81 -147 0 -43 27
-14 68 71 42 91 50 120 32 120 -5 0 -10 -9 -10 -19z"
    />
    <path
      d="M1170 11220 c0 -5 13 -10 29 -10 17 0 33 5 36 10 4 6 -8 10 -29 10
-20 0 -36 -4 -36 -10z"
    />
    <path
      d="M803 9920 c4 -18 7 -63 7 -100 0 -67 0 -68 29 -75 20 -4 38 -1 54 10
25 16 77 102 77 127 0 21 -70 57 -126 65 l-47 6 6 -33z"
    />
    <path
      d="M659 9888 c-43 -40 -53 -66 -45 -123 8 -49 19 -56 71 -48 l36 6 -3
95 c-2 55 -7 97 -13 99 -6 2 -27 -11 -46 -29z"
    />
    <path
      d="M1033 9773 c-7 -2 -13 -12 -13 -22 0 -19 -68 -115 -96 -136 -12 -9
-17 -25 -16 -56 1 -23 5 -46 10 -50 4 -5 61 -11 127 -14 159 -9 233 -25 295
-65 61 -39 74 -59 60 -96 -6 -15 -7 -31 -3 -35 4 -4 73 -9 153 -11 l145 -3 3
28 c2 15 -4 41 -12 59 -9 17 -16 37 -16 45 0 8 -13 34 -30 57 l-29 43 -68 2
c-109 3 -251 26 -271 44 -10 10 -26 17 -35 17 -18 0 -40 42 -57 108 -9 36 -17
45 -60 67 -49 25 -64 28 -87 18z"
    />
    <path
      d="M775 8835 c-5 -2 -22 -6 -37 -9 -14 -3 -48 -23 -75 -45 -62 -49 -110
-141 -125 -239 -14 -98 13 -180 86 -259 50 -54 52 -55 118 -60 115 -10 146 16
225 185 40 86 45 103 45 166 -1 146 -90 268 -194 265 -18 0 -37 -2 -43 -4z
m33 -221 c18 -13 22 -24 22 -74 0 -48 -4 -61 -19 -70 -23 -12 -71 -13 -87 -2
-39 26 -47 121 -11 145 29 21 67 21 95 1z"
    />
    <path
      d="M663 7353 c-18 -3 -33 -8 -33 -14 0 -8 15 -12 24 -6 2 1 13 -6 25
-17 11 -10 40 -23 63 -28 59 -12 218 -27 305 -28 62 0 74 3 83 19 17 33 12 41
-27 41 -20 0 -104 7 -187 15 -83 8 -167 16 -186 18 -19 2 -50 2 -67 0z"
    />
    <path
      d="M1268 7343 c-20 -3 -28 -12 -33 -33 -4 -16 -4 -34 0 -39 7 -12 160
-6 286 11 62 8 94 18 115 34 37 30 25 40 -30 24 -26 -7 -63 -9 -88 -6 -58 9
-217 15 -250 9z"
    />
    <path
      d="M1447 6704 c-3 -3 -4 -63 -1 -133 2 -69 4 -132 4 -138 0 -27 58 -14
94 21 31 29 36 39 36 81 0 63 -27 153 -50 165 -21 11 -73 13 -83 4z"
    />
    <path
      d="M1312 6688 c-30 -39 -52 -101 -52 -152 0 -30 3 -61 6 -70 7 -19 59
-22 70 -5 4 7 8 63 9 125 1 113 -6 135 -33 102z"
    />
    <path
      d="M1455 6287 c-22 -5 -69 -20 -105 -33 -36 -13 -73 -24 -82 -24 -28 0
-32 -20 -9 -48 11 -15 33 -49 48 -77 24 -46 27 -61 31 -195 5 -192 13 -184
-184 -188 -115 -3 -144 -7 -144 -18 0 -11 28 -14 148 -16 165 -2 285 2 292 9
3 3 6 84 7 181 3 200 7 241 30 286 9 17 18 44 20 60 1 16 10 37 18 46 8 9 15
20 15 23 0 9 -36 7 -85 -6z"
    />
    <path
      d="M1013 4795 c-3 -9 -3 -37 0 -63 7 -66 -4 -82 -51 -75 -49 7 -60 18
-43 44 9 16 10 24 1 33 -8 8 -20 2 -46 -26 -35 -39 -42 -65 -24 -99 13 -23 74
-26 123 -5 37 15 137 117 137 140 0 17 -56 66 -76 66 -8 0 -17 -7 -21 -15z"
    />
    <path
      d="M652 4713 c-7 -3 -24 -21 -37 -41 -23 -33 -23 -37 -8 -54 9 -10 22
-18 30 -18 19 0 17 -59 -4 -82 -16 -18 -17 -18 -39 3 -13 12 -30 19 -38 16
-17 -7 -42 -115 -29 -128 9 -9 137 50 162 75 8 9 23 41 32 72 16 52 16 61 3
93 -15 36 -42 72 -53 70 -3 0 -12 -3 -19 -6z"
    />
    <path
      d="M1196 4625 c-22 -22 -20 -40 7 -66 26 -24 105 -64 113 -56 3 3 -4 8
-16 12 -16 5 -19 11 -14 23 4 10 8 35 8 57 1 40 1 40 -40 43 -28 2 -47 -2 -58
-13z"
    />
    <path
      d="M1393 4535 c5 -31 3 -36 -19 -41 -20 -5 -22 -9 -13 -20 21 -25 99
-15 99 13 0 18 -49 83 -62 83 -6 0 -8 -14 -5 -35z"
    />
    <path
      d="M1048 4489 c-15 -8 -18 -25 -18 -100 0 -86 1 -92 28 -119 45 -44 119
-62 206 -49 39 6 89 17 111 25 23 8 51 14 63 14 27 0 62 33 62 60 0 14 -11 22
-41 30 -51 14 -69 8 -69 -24 0 -32 -5 -35 -66 -29 -49 5 -52 7 -63 43 -6 21
-21 45 -34 53 -12 9 -44 36 -70 61 -49 46 -76 55 -109 35z"
    />
    <path
      d="M906 4463 c-4 -5 -26 -8 -49 -8 -39 0 -41 -2 -49 -37 -5 -23 -3 -49
3 -65 6 -16 15 -41 19 -58 4 -16 11 -39 15 -49 7 -16 5 -18 -17 -13 -17 5 -30
2 -38 -8 -7 -8 -20 -15 -30 -15 -14 0 -18 11 -22 55 -6 75 -16 82 -66 49 -23
-15 -42 -30 -43 -33 0 -3 -2 -28 -3 -55 -3 -73 4 -77 102 -64 78 11 87 15 120
49 19 21 48 41 65 45 24 5 28 9 21 27 -4 12 -8 57 -9 99 -1 77 -5 95 -19 81z"
    />
    <path
      d="M1390 4151 c-19 -10 -62 -21 -95 -24 -103 -9 -117 -24 -64 -66 37
-29 85 -40 169 -41 89 0 120 21 141 94 14 51 6 55 -21 12 -25 -41 -57 -47 -85
-16 -14 16 -16 23 -7 32 14 14 16 28 5 28 -5 -1 -24 -9 -43 -19z"
    />
    <path
      d="M980 4116 c0 -8 5 -18 10 -21 16 -10 12 -35 -6 -35 -8 0 -22 -7 -31
-15 -21 -21 -37 -14 -41 18 -5 43 -25 51 -71 27 -26 -13 -69 -22 -118 -26
-162 -11 -174 -19 -71 -48 35 -10 72 -22 83 -26 64 -27 245 -29 298 -4 20 10
37 23 37 30 0 7 -14 35 -31 63 -31 49 -59 67 -59 37z"
    />
    <path
      d="M560 3443 c-14 -3 -31 -10 -37 -15 -16 -13 -17 -176 -2 -488 5 -124
11 -300 11 -393 2 -186 -2 -176 78 -220 64 -35 155 -41 234 -16 34 10 78 19
99 19 30 0 38 4 35 16 -5 26 -126 69 -252 89 -102 17 -121 23 -134 43 -13 20
-14 57 -8 265 3 133 10 278 16 322 23 194 32 343 20 364 -11 21 -15 22 -60 14z"
    />
    <path
      d="M1263 3443 c-19 -4 -21 -11 -25 -91 -7 -191 15 -532 40 -612 6 -19
15 -101 21 -182 9 -119 15 -154 33 -185 32 -56 49 -73 73 -73 13 0 40 -7 60
-16 54 -22 166 -9 262 32 35 15 37 44 2 44 -10 0 -33 6 -51 14 -59 24 -135 46
-161 46 -17 0 -36 13 -59 40 -33 37 -35 45 -46 162 -7 68 -17 150 -23 183 -6
33 -15 85 -20 115 -6 30 -10 159 -10 286 l0 232 -31 6 c-17 3 -33 5 -37 5 -3
-1 -16 -4 -28 -6z"
    />
    <path
      d="M1115 1164 c-207 -24 -227 -31 -187 -67 34 -31 112 -41 216 -29 102
13 264 16 291 6 8 -4 22 -19 31 -35 13 -26 13 -34 -1 -75 -8 -24 -15 -49 -15
-55 0 -6 -7 -27 -16 -46 -26 -54 -4 -61 40 -13 58 63 103 72 149 32 15 -14 17
-14 17 1 0 8 -3 17 -8 19 -16 7 -73 108 -70 125 2 10 20 27 41 38 20 11 35 25
34 30 -2 6 -26 13 -53 16 -160 20 -249 32 -330 44 -49 8 -94 14 -100 14 -5 -1
-22 -4 -39 -5z"
    />
    <path
      d="M1646 841 c-3 -5 1 -14 9 -21 8 -7 15 -19 15 -26 0 -8 4 -22 9 -32 5
-9 16 -44 26 -77 9 -33 23 -75 31 -93 8 -18 14 -42 14 -52 0 -11 7 -20 15 -20
32 0 4 136 -46 220 -5 8 -12 22 -15 30 -3 8 -10 22 -15 30 -5 8 -12 23 -15 33
-7 18 -20 22 -28 8z"
    />
  </g>
</svg>
