<?xml version="1.0" standalone="no"?>
<!DOCTYPE svg PUBLIC "-//W3C//DTD SVG 20010904//EN" "http://www.w3.org/TR/2001/REC-SVG-20010904/DTD/svg10.dtd">
<svg
  version="1.0"
  xmlns="http://www.w3.org/2000/svg"
  width="100%"
  height="100%"
  viewBox="0 0 1728.000000 614.000000"
>
  <g
    transform="translate(0.000000,614.000000) scale(0.100000,-0.100000)"
    fill="currentColor"
  >
    <path
      d="M14070 6017 c0 -110 -1 -115 -22 -121 -13 -3 -33 -6 -45 -6 l-23 0 1
-216 c0 -119 -1 -217 -3 -218 -2 -1 -41 1 -88 4 l-85 5 1 90 c5 374 5 538 -1
543 -3 4 -56 8 -116 10 l-110 4 7 -336 6 -337 -44 8 c-23 5 -81 7 -127 7 l-84
-2 7 173 c4 95 13 199 21 230 10 43 10 58 1 61 -7 2 -48 -2 -91 -9 l-80 -14
-3 25 c-2 14 1 44 7 68 6 24 11 59 11 78 l0 36 -89 0 c-50 0 -92 -4 -95 -8 -2
-4 4 -39 15 -77 67 -242 115 -629 105 -846 -7 -146 -22 -212 -63 -267 -13 -17
-22 -36 -18 -41 3 -5 -2 -17 -11 -26 -9 -9 -14 -18 -12 -21 3 -2 113 -9 244
-14 132 -5 289 -16 349 -25 121 -16 280 -19 513 -8 135 5 152 8 152 23 0 36
-42 228 -69 320 -46 151 -46 141 2 336 48 190 66 329 73 537 l4 127 -43 1
c-53 2 -79 4 -144 14 l-53 8 0 -116z"
    />
    <path
      d="M10008 4607 c-17 -14 -36 -50 -53 -102 -15 -44 -31 -87 -35 -96 -5
-8 -11 -38 -13 -66 -3 -27 -10 -60 -17 -73 -12 -22 -14 -122 -8 -335 1 -64
-13 -217 -24 -253 -6 -20 -7 -53 -2 -80 4 -26 7 -67 5 -91 -1 -24 5 -68 14
-98 9 -30 14 -67 11 -82 -3 -14 -8 -84 -10 -154 -7 -180 21 -288 78 -303 33
-8 84 21 92 51 7 27 16 30 45 15 10 -6 38 -15 61 -20 24 -4 63 -16 87 -25 24
-8 51 -13 61 -10 74 23 171 165 130 190 -5 3 -10 15 -10 26 0 15 5 19 18 15
45 -14 164 -25 180 -17 25 13 46 56 39 81 -8 32 12 80 33 80 11 0 22 5 25 10
3 6 33 10 65 10 70 0 90 19 90 87 0 23 5 45 10 48 6 3 10 17 10 30 0 20 8 26
43 36 60 18 82 50 108 157 12 50 26 92 31 92 4 0 17 -5 27 -12 16 -10 29 -7
74 15 80 39 115 72 123 115 4 20 8 45 10 54 5 31 25 59 37 52 37 -21 47 -39
47 -85 0 -36 6 -55 23 -75 23 -27 25 -27 69 -15 53 15 108 7 108 -15 0 -9 -5
-24 -10 -35 -10 -17 -12 -69 -6 -174 4 -88 29 -107 105 -80 24 8 65 15 92 15
46 0 49 -1 51 -27 4 -63 3 -79 -4 -108 -5 -16 -3 -56 3 -88 7 -43 7 -73 -2
-115 -7 -31 -13 -75 -13 -96 -1 -37 -4 -40 -36 -49 -19 -5 -47 -20 -63 -33
-16 -13 -37 -24 -48 -24 -10 0 -33 -13 -51 -30 -17 -16 -35 -30 -39 -30 -15 0
-17 -1 -71 -19 -57 -19 -79 -46 -112 -141 -14 -40 -24 -49 -79 -78 -34 -18
-70 -32 -79 -32 -28 0 -55 -51 -57 -112 -1 -13 -10 -16 -48 -15 -30 1 -48 -3
-51 -11 -2 -7 -28 -24 -56 -36 -59 -26 -82 -61 -92 -143 -10 -70 -19 -83 -62
-84 -76 -1 -128 -61 -152 -176 -9 -43 -8 -57 4 -82 21 -39 21 -38 -16 -47 -43
-10 -39 -9 -71 -22 -16 -7 -36 -12 -46 -12 -36 0 -56 -38 -53 -101 2 -54 0
-60 -20 -68 -13 -5 -35 -23 -50 -40 -16 -17 -43 -37 -63 -45 -34 -14 -48 -40
-49 -91 -1 -17 -7 -19 -41 -17 -56 4 -101 -39 -110 -106 -3 -27 -5 -52 -4 -58
5 -25 -5 -33 -54 -44 -62 -12 -77 -31 -75 -93 0 -24 -4 -52 -9 -63 -11 -20
-10 -67 2 -149 l7 -50 -47 -29 c-61 -39 -87 -89 -97 -191 -5 -44 -10 -92 -11
-107 -2 -15 2 -44 9 -65 8 -21 14 -59 14 -84 0 -25 7 -68 16 -95 8 -27 17 -92
18 -145 5 -155 36 -204 113 -178 19 6 49 9 66 6 18 -3 55 1 83 9 38 11 63 12
94 5 23 -5 61 -8 83 -5 22 2 46 -1 52 -6 15 -13 201 -5 239 9 17 7 50 9 80 5
54 -7 138 -14 196 -16 19 -1 69 2 110 6 106 12 268 8 313 -6 31 -9 47 -9 90 5
47 14 58 14 115 1 35 -8 66 -12 71 -10 4 3 27 -1 52 -7 45 -13 161 -15 222 -3
19 4 62 0 96 -8 33 -8 70 -12 80 -9 11 3 30 -2 43 -11 25 -18 56 -20 90 -7 13
6 41 13 62 16 48 8 96 53 96 89 0 15 -9 45 -19 69 -19 39 -26 84 -22 133 1 18
10 22 64 29 34 4 77 7 95 6 17 -2 47 2 66 9 18 6 44 13 56 15 13 3 29 10 35
17 15 16 45 121 49 168 2 20 10 47 19 61 12 18 17 51 19 120 3 161 -1 238 -12
259 -13 24 -53 46 -104 55 -41 8 -42 10 -50 70 -11 86 -19 106 -51 131 -23 17
-45 24 -77 24 -24 0 -48 3 -51 7 -12 11 -102 40 -114 36 -6 -2 -28 5 -49 16
-23 13 -57 21 -86 21 -26 0 -50 5 -54 11 -5 8 2 10 21 7 17 -4 43 1 64 12 29
14 55 17 136 14 190 -8 251 -3 348 29 54 17 72 28 84 50 33 65 23 121 -34 172
-38 34 -43 55 -48 186 -2 48 -8 96 -14 108 -7 13 -9 44 -5 83 8 80 -5 93 -96
102 -63 6 -83 7 -162 7 -21 0 -46 0 -55 0 -61 1 -211 -15 -229 -25 -26 -14
-124 -122 -125 -139 -1 -6 -2 -23 -2 -37 -2 -21 -8 -26 -36 -28 -19 -2 -48
-14 -65 -27 -24 -18 -46 -24 -96 -26 -53 -2 -68 -7 -86 -26 -31 -34 -48 -103
-41 -172 4 -32 4 -81 0 -110 l-6 -51 -38 0 c-70 0 -90 -13 -152 -94 -42 -55
-46 -90 -22 -170 8 -27 15 -65 15 -85 1 -20 9 -54 20 -76 11 -22 19 -45 20
-51 0 -6 9 -19 21 -30 16 -14 36 -18 90 -19 68 0 76 -4 70 -39 -1 -4 5 -19 14
-32 8 -13 15 -39 15 -58 0 -27 6 -40 26 -52 22 -15 32 -16 73 -5 27 7 60 9 74
6 23 -6 25 -9 15 -37 -6 -16 -26 -45 -44 -63 -18 -18 -40 -51 -49 -71 -25 -61
-124 -145 -148 -126 -7 5 -28 9 -47 8 -19 -1 -52 6 -72 16 -21 10 -44 18 -51
18 -27 0 -67 -41 -79 -81 -21 -72 -83 -101 -119 -55 -10 13 -30 27 -43 30 -13
3 -34 21 -46 40 -11 19 -30 38 -41 41 -11 4 -48 34 -82 66 -34 33 -76 67 -92
75 -17 8 -35 24 -40 36 -6 12 -32 33 -60 46 -27 14 -53 30 -57 37 -4 6 -25 24
-48 40 -26 18 -40 35 -40 49 1 31 35 66 76 78 20 5 46 18 57 29 12 11 39 22
60 26 49 7 77 48 77 111 0 30 11 65 34 110 18 37 39 78 45 92 6 14 27 45 47
70 35 43 36 47 32 110 -3 36 -7 72 -9 80 -3 10 7 16 36 20 63 10 98 34 123 84
13 25 27 48 32 51 5 3 15 25 21 48 13 51 22 57 77 57 24 0 56 7 72 15 36 19
80 75 80 103 0 25 83 92 114 92 22 0 59 21 86 50 8 8 27 21 42 29 18 9 29 26
37 57 l11 44 63 -2 c68 -1 138 12 162 32 18 15 19 45 4 105 -8 33 -8 61 2 117
8 40 12 82 11 93 -2 18 4 36 28 85 4 8 23 19 42 25 46 13 62 27 112 100 40 58
41 63 42 144 2 77 4 85 25 97 13 7 34 13 45 14 36 0 48 24 39 83 -4 28 -7 59
-6 67 6 157 9 198 16 213 4 9 4 43 0 75 -13 91 -11 173 2 184 9 7 27 7 57 -1
54 -13 145 -14 166 -1 11 6 15 25 14 62 -1 29 -2 86 -3 126 -1 40 -8 100 -16
133 -7 34 -11 67 -9 74 3 7 7 67 8 132 2 65 6 138 11 163 5 35 2 63 -15 119
l-22 74 -69 -7 c-39 -3 -89 -1 -116 5 -27 6 -66 11 -88 10 -22 0 -44 4 -50 9
-13 10 -48 11 -160 4 -143 -9 -259 -3 -293 15 -10 5 -33 7 -52 5 -19 -3 -64
-7 -100 -9 -36 -2 -76 -8 -90 -13 -15 -5 -40 -5 -65 0 -22 5 -59 6 -83 3 -28
-4 -48 -2 -58 6 -9 8 -28 9 -57 4 -23 -4 -62 -8 -87 -9 -25 -1 -58 -9 -75 -18
-24 -12 -59 -14 -165 -12 -103 2 -140 0 -157 -11 -11 -8 -33 -16 -47 -19 -82
-15 -94 -34 -70 -111 12 -38 15 -58 7 -66 -5 -5 -47 -10 -92 -11 -78 -1 -83
-3 -106 -30 -29 -34 -31 -64 -10 -114 11 -27 12 -39 3 -54 -14 -23 -50 -40
-83 -40 -23 0 -25 4 -25 43 0 29 -9 56 -29 88 -25 40 -35 47 -68 51 -21 3 -57
-2 -80 -11 -23 -8 -45 -12 -48 -9 -6 5 -18 62 -35 166 -10 65 -27 93 -106 178
-48 51 -83 57 -126 21z"
    />
    <path
      d="M14795 4532 c-63 -4 -79 -9 -111 -39 -21 -19 -37 -47 -47 -83 -29
-105 -28 -125 3 -185 25 -47 29 -68 31 -138 1 -65 5 -89 22 -113 25 -38 83
-65 114 -53 12 4 44 7 72 7 59 -2 68 -15 52 -75 -6 -21 -10 -65 -11 -98 0 -33
0 -89 -1 -125 -2 -86 10 -170 29 -198 15 -22 20 -24 80 -17 l64 7 -6 -69 c-9
-95 -9 -248 0 -312 l7 -54 -41 6 c-48 8 -127 -21 -136 -50 -7 -24 0 -230 9
-266 l8 -29 -64 7 c-71 8 -88 -1 -122 -62 -17 -31 -30 -168 -26 -273 4 -107 3
-158 -4 -182 -7 -27 -10 -28 -63 -25 -52 2 -58 0 -78 -26 -18 -24 -20 -40 -18
-110 6 -171 5 -225 -2 -317 -12 -160 -6 -335 13 -384 9 -22 9 -48 1 -100 -6
-38 -8 -89 -4 -113 4 -27 2 -48 -5 -57 -15 -18 -7 -287 10 -334 6 -18 9 -49 6
-69 -8 -45 26 -83 73 -83 50 0 71 -29 77 -104 4 -41 11 -71 21 -78 9 -8 45
-13 94 -13 94 0 101 -6 92 -85 -5 -45 -3 -58 11 -70 18 -15 111 -32 160 -28
88 6 260 -7 280 -22 22 -16 62 -19 98 -8 29 9 43 9 57 0 13 -8 29 -7 64 3 39
12 57 12 122 0 42 -8 80 -13 84 -10 5 3 34 -2 66 -10 44 -11 67 -12 96 -4 25
6 50 7 73 0 23 -6 47 -6 68 0 17 5 48 12 67 15 63 9 82 61 48 127 -5 10 -11
48 -13 85 -3 66 -21 117 -47 133 -7 5 -28 9 -47 9 -27 0 -43 10 -82 50 -27 28
-57 50 -68 50 -35 0 -54 29 -47 73 9 52 -18 138 -54 177 -25 27 -30 28 -64 18
-20 -6 -38 -9 -41 -7 -2 3 -1 29 4 58 5 29 5 70 0 90 -4 20 -6 46 -3 58 10 38
-33 109 -76 126 -27 10 -46 28 -64 60 -26 44 -31 70 -28 150 2 35 4 37 28 33
32 -6 80 17 88 41 9 28 11 186 3 209 -7 20 -3 22 35 27 95 12 123 19 140 33
20 19 38 97 31 141 -5 29 -1 33 33 51 22 11 64 27 95 36 31 9 62 23 69 31 8 9
29 15 57 15 30 0 51 6 66 20 12 12 33 23 47 26 51 11 69 24 96 71 31 55 106
133 128 133 8 0 22 10 30 21 14 20 18 21 73 10 79 -16 100 -14 139 9 27 17 35
30 44 74 8 38 8 61 0 81 -16 43 -21 158 -6 146 19 -16 89 -15 121 1 39 21 61
46 70 83 7 26 10 186 4 240 -4 45 -3 45 92 42 82 -3 94 -1 115 17 19 17 24 32
25 81 1 33 9 73 17 89 10 21 13 49 9 93 -3 40 0 81 9 110 23 76 18 123 -16
171 -17 22 -40 44 -52 48 -18 5 -20 12 -15 56 7 58 -8 145 -30 169 -8 10 -34
22 -58 28 -39 10 -71 31 -47 31 13 0 22 39 27 112 3 32 10 68 16 79 15 29 3
101 -22 134 -24 30 -79 55 -120 55 -27 0 -29 3 -29 38 0 20 -5 53 -11 72 -5
19 -10 60 -10 91 1 74 -19 95 -81 85 -24 -3 -88 -6 -143 -5 -55 1 -120 1 -145
1 -59 1 -172 -17 -197 -31 -22 -11 -197 -9 -226 3 -16 7 -49 5 -102 -7 -11 -2
-29 -1 -40 3 -11 4 -39 1 -62 -7 -34 -12 -53 -12 -93 -4 -28 6 -68 11 -88 11
-21 0 -43 5 -48 10 -6 6 -24 10 -40 10 -121 -2 -181 -6 -191 -13 -7 -4 -41 -1
-77 7 -36 9 -72 13 -81 10 -8 -4 -27 2 -41 11 -22 14 -55 18 -183 20 -86 1
-169 6 -186 11 -16 5 -48 8 -70 6z m1261 -508 c8 -20 20 -61 25 -92 13 -69 31
-99 61 -104 20 -3 24 -11 31 -58 4 -34 3 -75 -4 -106 -13 -58 -8 -90 20 -125
18 -23 23 -24 130 -23 102 1 111 0 112 -17 2 -32 4 -37 12 -45 4 -4 4 -30 1
-56 -8 -57 10 -124 38 -150 15 -13 30 -16 64 -11 l44 6 1 -44 c2 -85 -3 -164
-12 -175 -5 -6 -6 -25 -3 -42 6 -30 6 -31 -42 -37 -104 -13 -114 -16 -126 -38
-6 -12 -11 -48 -11 -79 0 -61 -4 -66 -38 -45 -18 11 -24 8 -50 -21 -16 -18
-29 -41 -29 -51 0 -11 -9 -21 -23 -25 -19 -4 -22 -11 -21 -48 0 -24 -3 -51 -8
-61 -5 -10 -10 -31 -10 -48 -1 -33 3 -32 -134 -30 -102 1 -103 1 -125 -69 -21
-69 -58 -120 -86 -120 -14 0 -32 4 -42 10 -12 6 -34 5 -66 -3 -43 -11 -50 -17
-77 -67 -35 -62 -106 -160 -118 -160 -5 0 -13 13 -18 29 -9 25 -7 32 14 52 35
32 29 76 -12 104 l-31 21 18 33 c9 18 24 40 33 50 9 10 16 21 16 26 0 4 19 33
43 63 l42 55 1 156 c1 217 1 211 24 211 61 0 182 102 200 169 6 24 20 56 31
70 15 20 19 45 20 114 2 110 -21 161 -98 221 -65 50 -78 91 -44 136 31 43 29
102 -6 135 -30 27 -37 30 -94 39 -57 10 -79 47 -83 144 -2 40 0 43 21 37 14
-3 49 5 86 19 34 14 71 27 82 29 11 2 29 7 40 11 11 5 32 12 47 18 15 6 34 8
41 5 7 -2 26 1 42 8 46 20 55 18 71 -21z"
    />
    <path
      d="M500 4514 c-19 -7 -45 -11 -57 -9 -12 3 -44 -6 -71 -20 -36 -18 -66
-25 -106 -25 -62 0 -90 -18 -102 -65 -7 -30 27 -75 56 -75 16 0 17 -15 15
-152 -1 -84 -7 -164 -12 -178 -16 -40 2 -89 35 -96 53 -12 66 -17 80 -31 8 -8
21 -12 30 -8 12 4 14 -3 10 -47 -4 -33 0 -68 9 -93 8 -22 12 -52 9 -68 -7 -36
19 -62 76 -77 24 -6 47 -12 52 -14 13 -3 18 -30 21 -111 1 -38 8 -88 15 -110
8 -29 9 -55 2 -93 -5 -28 -8 -71 -6 -93 3 -23 -1 -48 -7 -55 -6 -7 -9 -37 -7
-66 3 -52 3 -52 -27 -53 -17 0 -41 -8 -55 -18 -13 -9 -35 -17 -47 -17 -40 0
-55 -38 -53 -142 0 -51 -2 -126 -5 -165 l-7 -73 -57 6 c-53 6 -58 5 -74 -19
-13 -20 -16 -40 -12 -83 3 -32 0 -72 -6 -89 -11 -29 -3 -168 17 -288 6 -38 6
-38 -22 -31 -39 9 -36 9 -62 0 -47 -16 -67 -47 -66 -101 1 -27 2 -90 3 -140 1
-49 6 -113 12 -142 8 -39 7 -69 -4 -126 -8 -40 -12 -88 -9 -106 2 -18 -1 -38
-9 -48 -16 -19 -22 -263 -8 -301 6 -16 4 -54 -6 -113 -9 -50 -13 -94 -10 -100
4 -5 -1 -32 -10 -59 -11 -34 -14 -63 -10 -95 l7 -45 65 0 c59 0 64 -2 58 -19
-3 -11 -10 -66 -15 -123 -6 -57 -12 -123 -16 -148 -8 -69 5 -80 112 -91 49 -5
101 -7 117 -3 15 3 56 2 92 -1 55 -6 63 -10 56 -24 -4 -9 -5 -56 -2 -106 6
-85 7 -90 33 -103 21 -10 37 -10 68 -2 29 8 51 8 82 -1 24 -6 64 -13 90 -15
26 -1 63 -8 82 -15 28 -10 43 -10 76 0 22 7 50 9 61 6 10 -4 34 -2 52 4 17 6
43 11 57 11 48 0 195 -9 224 -14 16 -2 40 0 55 6 14 6 41 10 59 9 19 0 50 7
70 15 23 10 62 15 102 14 234 -5 359 3 394 25 12 8 41 14 64 13 57 -1 74 17
79 84 2 29 8 62 13 73 5 11 10 31 12 45 2 16 10 26 23 28 11 1 37 8 57 14 49
15 54 31 62 198 4 88 11 127 25 140 3 3 11 14 17 25 6 11 25 25 42 30 53 18
74 45 68 85 -4 19 -9 59 -12 88 l-7 54 46 -7 c121 -18 170 20 167 133 -4 200
2 342 17 382 10 25 9 80 0 132 -3 16 -2 40 2 56 5 15 3 61 -4 104 -7 43 -10
80 -7 83 3 3 18 5 33 5 33 0 59 23 60 53 1 12 0 85 -1 162 -4 213 -4 231 10
355 10 97 12 214 7 445 0 22 5 94 12 160 17 150 21 341 8 378 -8 23 -21 31
-96 53 -47 14 -92 27 -99 29 -10 4 -9 11 3 35 9 17 18 61 21 98 3 37 17 100
31 140 23 65 24 76 12 98 -7 14 -32 35 -56 46 -23 11 -49 30 -57 43 -10 16
-22 22 -35 18 -18 -5 -19 -2 -10 38 6 24 11 45 13 47 2 1 -1 23 -5 49 -7 33
-5 60 7 99 22 78 16 116 -20 125 -16 5 -33 14 -37 20 -4 8 -42 13 -101 16 -51
2 -100 4 -108 4 -8 1 -35 -1 -60 -5 -33 -5 -60 -1 -104 13 -32 12 -63 18 -68
15 -5 -3 -30 3 -56 13 -39 16 -69 19 -167 17 -72 -1 -147 3 -189 12 -38 7 -73
11 -77 8 -5 -3 -34 3 -64 12 -51 16 -58 16 -89 2 -55 -27 -55 -106 1 -130 37
-17 96 -56 105 -71 5 -7 5 -49 2 -94 -4 -54 -3 -92 5 -110 11 -28 60 -63 86
-63 18 0 23 -17 18 -75 -2 -27 2 -68 9 -90 8 -23 11 -59 8 -85 -3 -25 -4 -53
-1 -63 5 -23 52 -47 79 -41 29 8 46 -28 39 -85 -6 -52 18 -167 40 -193 14 -15
72 -32 118 -33 16 0 19 -5 15 -25 -2 -14 -3 -41 -2 -60 1 -19 3 -69 5 -110 2
-41 9 -86 16 -98 8 -15 10 -41 6 -70 -3 -26 -7 -89 -9 -141 -4 -87 -2 -95 19
-115 13 -12 59 -34 104 -50 75 -26 87 -35 81 -61 -1 -5 -4 -41 -5 -80 -2 -38
-8 -90 -14 -115 -7 -31 -7 -55 1 -79 6 -18 8 -54 5 -79 -3 -26 1 -66 9 -93 12
-40 13 -178 2 -184 -2 0 -33 -16 -70 -34 -37 -18 -77 -44 -89 -57 l-23 -24 18
-73 c10 -43 16 -109 16 -162 -2 -112 4 -203 13 -232 9 -26 0 -33 -50 -38 -45
-4 -77 -38 -69 -72 3 -13 9 -34 12 -48 6 -23 5 -24 -28 -14 -45 13 -124 -6
-143 -35 -11 -16 -14 -49 -13 -117 0 -52 0 -129 -1 -172 -1 -42 3 -86 9 -97 6
-11 12 -36 14 -57 2 -21 6 -45 7 -53 3 -11 -4 -15 -31 -13 -188 9 -292 3 -338
-21 -17 -9 -48 -15 -69 -14 -33 3 -38 7 -41 30 -2 15 -17 39 -34 53 -29 25
-41 26 -78 11 -25 -11 -41 58 -42 184 0 63 3 132 7 153 15 75 -34 126 -102
108 -51 -15 -64 1 -52 66 5 26 9 77 8 113 0 36 3 76 9 90 5 14 8 43 6 65 -15
183 -16 186 -40 201 -19 13 -30 14 -57 5 -22 -8 -49 -8 -82 -2 -26 5 -55 6
-63 3 -13 -4 -14 1 -8 34 5 21 8 53 7 69 -4 96 -10 153 -20 178 -17 44 -13 66
19 107 17 21 30 41 30 45 0 4 21 29 48 56 26 26 61 62 77 79 17 17 38 37 48
45 21 18 22 63 3 91 -14 19 -11 22 40 53 30 18 54 36 54 41 0 12 48 60 60 60
5 0 19 18 30 40 19 37 20 49 11 133 -5 50 -12 102 -16 113 -6 19 -1 24 32 34
21 7 53 21 70 32 18 11 37 17 41 14 14 -8 78 13 93 30 15 18 16 38 22 301 4
182 4 183 -20 205 -14 13 -25 21 -26 19 -1 -2 -12 -1 -24 3 -28 9 -29 31 -3
74 21 34 28 129 11 147 -5 6 -14 26 -20 45 -14 43 -44 78 -92 108 -43 26 -52
58 -43 143 6 53 5 57 -30 94 -33 35 -39 37 -77 31 -23 -4 -58 -1 -80 6 -40 11
-40 12 -33 47 5 20 7 54 6 76 -1 22 -3 66 -5 97 -2 43 -8 61 -22 73 -16 11
-52 19 -67 14 -2 0 -28 9 -58 21 -49 20 -89 28 -210 43 -19 3 -51 -1 -70 -9z"
    />
    <path
      d="M13386 4518 c-10 -6 -37 -8 -59 -5 -24 3 -54 0 -73 -8 -18 -7 -93
-16 -179 -19 -119 -5 -154 -10 -186 -27 -41 -20 -64 -58 -54 -88 11 -34 61
-80 103 -92 37 -11 41 -15 35 -33 -21 -62 29 -185 94 -227 21 -14 30 -32 41
-81 8 -35 15 -87 17 -117 3 -64 27 -91 81 -91 46 0 69 -35 58 -87 -4 -21 -8
-45 -7 -53 19 -202 29 -234 87 -269 36 -23 59 -88 55 -157 -1 -21 5 -61 14
-89 12 -36 18 -99 21 -227 4 -195 6 -188 -60 -188 -60 0 -74 -14 -74 -73 0
-29 7 -79 14 -112 17 -70 9 -92 -34 -93 -16 0 -43 -10 -58 -21 -24 -16 -30
-32 -41 -93 -7 -40 -15 -104 -17 -143 -3 -38 -10 -82 -15 -96 -6 -14 -10 -41
-10 -60 1 -65 9 -195 15 -249 4 -30 3 -68 -2 -85 -8 -27 -13 -31 -60 -36 -71
-9 -102 -31 -102 -72 1 -17 7 -43 15 -57 8 -14 14 -37 15 -53 0 -24 -3 -27
-25 -21 -35 9 -73 -3 -85 -26 -6 -11 -15 -55 -20 -97 -5 -43 -13 -98 -19 -123
-7 -31 -7 -55 1 -79 6 -18 8 -54 4 -78 -4 -28 0 -68 10 -105 11 -46 14 -85 8
-162 -7 -112 -5 -116 68 -156 32 -17 33 -20 34 -81 0 -35 5 -75 11 -89 5 -13
8 -55 5 -93 -5 -76 7 -96 60 -97 15 0 30 -4 33 -10 3 -5 17 -10 31 -10 22 0
24 -4 24 -50 0 -62 22 -84 83 -86 91 -3 204 -13 246 -23 27 -6 53 -6 68 0 13
5 40 9 59 9 19 0 50 6 69 14 37 16 189 14 255 -2 21 -5 46 -5 60 0 14 5 41 7
61 4 23 -4 51 0 73 9 29 12 50 14 99 6 34 -5 73 -9 87 -9 14 0 43 -5 65 -11
54 -14 105 2 105 32 0 14 13 30 35 44 32 21 34 25 23 50 -15 34 -25 44 -106
108 -70 54 -68 45 -46 168 3 20 3 58 -1 82 -5 37 -12 48 -37 61 -25 13 -38 14
-80 4 -27 -7 -51 -10 -54 -8 -2 3 0 17 6 32 15 40 3 257 -17 308 -23 60 -31
68 -68 68 -25 0 -34 5 -39 23 -7 29 -6 115 3 147 4 13 2 49 -3 78 -8 42 -6 74
9 149 l19 95 -24 70 c-31 90 -64 118 -141 118 -75 0 -78 4 -68 77 5 34 7 80 4
102 -2 22 1 44 7 47 5 4 8 32 6 67 -3 59 -3 60 28 71 17 6 46 28 65 50 33 38
34 41 36 138 l2 99 37 39 c48 49 67 108 53 167 -10 45 -12 101 -5 143 2 14 4
29 5 34 0 5 16 5 34 1 84 -19 137 -3 152 45 14 45 12 127 -6 180 -13 36 -18
79 -17 125 2 39 -1 75 -5 82 -4 7 -3 20 2 30 5 10 12 26 15 36 3 11 15 17 34
17 15 0 33 5 40 12 13 13 14 73 3 123 -4 17 -3 50 1 75 23 127 26 430 4 515
-6 28 -9 66 -6 85 9 58 -2 92 -38 117 -18 12 -40 19 -48 16 -33 -12 -95 84
-80 123 3 8 -1 28 -9 44 -11 22 -24 30 -57 35 -24 3 -62 15 -85 26 -23 10 -63
23 -89 29 -25 6 -53 17 -61 25 -8 8 -22 15 -31 16 -9 0 -42 3 -72 5 -30 2 -89
4 -130 5 -41 0 -83 5 -93 11 -10 5 -37 9 -60 10 -23 0 -49 4 -57 8 -29 14 -75
18 -94 8z"
    />
    <path
      d="M8208 4515 c-2 -2 -22 -7 -44 -10 -21 -3 -59 -9 -84 -13 -25 -5 -74
-7 -110 -5 -36 2 -78 3 -95 4 -16 1 -86 -2 -155 -6 -69 -4 -132 -7 -140 -6
-24 4 -151 12 -203 14 -65 2 -73 -10 -80 -133 -8 -147 -6 -150 86 -180 76 -25
77 -25 71 -54 -8 -39 -8 -135 0 -173 8 -35 44 -56 113 -68 22 -3 49 -13 60
-20 10 -8 30 -15 44 -15 26 0 27 -2 26 -57 -1 -70 11 -251 19 -275 3 -9 21
-23 40 -30 46 -16 65 -71 39 -111 -18 -28 -18 -20 6 -242 11 -105 12 -228 5
-437 -3 -91 -2 -99 20 -119 26 -25 64 -22 136 11 58 26 77 26 53 0 -16 -17
-19 -41 -22 -153 -2 -72 -5 -170 -8 -217 -3 -47 -5 -108 -5 -137 1 -28 -4 -54
-9 -58 -7 -4 -8 -40 -5 -99 l6 -93 -46 -7 c-62 -10 -81 -37 -73 -110 3 -35 1
-63 -8 -79 -8 -15 -15 -78 -19 -153 -3 -70 -8 -129 -11 -132 -3 -3 -20 -5 -39
-4 -49 2 -91 -47 -82 -95 3 -18 9 -49 12 -68 l7 -35 -60 0 c-74 0 -85 -11 -89
-88 -2 -31 -7 -71 -12 -87 -5 -17 -7 -45 -4 -63 3 -20 -2 -41 -12 -58 -10 -14
-18 -40 -20 -57 -7 -83 -27 -120 -61 -111 -13 3 -31 1 -42 -4 -13 -7 -24 -6
-37 4 -12 9 -33 12 -55 8 -20 -3 -64 -6 -99 -7 l-62 -2 2 78 3 78 -35 30 c-58
49 -80 62 -108 63 -31 1 -31 -1 -11 122 l13 81 -30 49 c-16 27 -37 63 -46 79
-9 17 -27 36 -41 42 -44 23 -49 35 -33 94 8 30 18 65 22 79 4 14 13 33 21 42
20 23 42 87 43 124 0 38 -36 74 -108 104 -29 13 -62 34 -72 48 -27 34 -45 101
-31 115 6 6 11 35 11 64 0 32 7 67 19 90 18 35 29 127 35 282 1 31 5 36 35 44
23 6 42 5 57 -3 33 -18 80 -3 125 40 39 37 40 40 38 97 -1 32 -8 78 -15 103
-18 58 -17 60 4 60 10 0 33 13 52 30 19 16 46 29 60 30 37 0 119 60 124 90 3
14 5 81 6 150 3 215 6 258 20 275 10 12 11 39 7 108 -10 149 -32 192 -112 220
-50 17 -55 42 -25 108 21 43 22 52 11 96 -16 66 -88 167 -184 258 -70 67 -79
79 -69 95 13 22 6 244 -9 272 -10 19 -72 26 -184 20 -27 -1 -60 3 -72 9 -16 9
-61 9 -175 2 -84 -6 -187 -9 -228 -6 -239 14 -258 -1 -256 -200 1 -106 2 -109
29 -133 15 -13 46 -29 70 -36 76 -22 87 -40 87 -144 0 -109 10 -128 66 -126
24 1 56 -7 82 -21 l42 -22 -6 -70 c-7 -83 -19 -149 -33 -187 -16 -41 12 -98
48 -98 9 0 29 -14 45 -32 21 -24 26 -36 18 -48 -5 -9 -29 -85 -52 -170 -62
-227 -70 -241 -129 -233 -59 8 -70 -15 -64 -136 l5 -98 -34 -16 c-62 -29 -71
-48 -70 -136 1 -44 -2 -82 -7 -86 -6 -3 -10 -77 -10 -165 0 -88 -3 -165 -6
-170 -3 -6 -19 -10 -35 -10 -19 0 -41 -12 -66 -35 l-37 -35 8 -202 c4 -112 7
-210 6 -218 0 -8 -1 -50 -1 -92 0 -42 -4 -80 -10 -83 -7 -4 -8 -42 -4 -108 15
-229 16 -282 10 -442 -6 -122 0 -215 20 -312 7 -37 37 -46 97 -30 69 18 143
17 139 -3 -2 -8 -5 -28 -7 -45 -2 -16 -6 -56 -10 -87 -7 -59 9 -112 41 -139
21 -17 109 -29 143 -19 30 8 30 8 42 -48 17 -88 19 -89 167 -90 70 0 143 -5
162 -9 18 -5 68 -5 110 -1 132 12 320 16 327 5 3 -6 52 -6 132 -2 159 10 287
8 310 -5 10 -5 110 -11 221 -12 190 -2 203 -1 216 17 8 11 12 25 9 33 -2 7 2
29 10 48 10 25 13 57 8 122 -9 140 -9 137 7 133 8 -3 35 -6 60 -9 25 -2 52
-10 60 -17 27 -22 68 -26 101 -10 59 31 56 79 -11 152 -22 23 -40 51 -40 62 0
10 -7 32 -15 47 -8 16 -18 44 -21 63 -8 41 5 51 66 50 60 -1 125 30 180 86
l45 46 2 82 c1 45 6 93 11 107 5 14 7 62 4 108 -4 71 -2 86 14 105 39 45 61
83 73 129 16 55 9 91 -25 135 -26 35 -35 118 -16 164 9 23 88 108 141 152 17
13 21 28 21 71 0 29 7 67 15 82 15 28 21 228 17 488 -1 38 3 75 9 82 7 8 9 36
5 71 -12 118 -19 231 -20 328 -1 55 -5 106 -9 112 -4 6 -2 31 4 55 9 36 8 63
-10 158 -14 78 -26 119 -38 128 -15 11 -62 17 -105 13 -9 -1 -19 3 -23 9 -3 5
-18 10 -32 10 -24 0 -25 2 -18 38 11 49 11 89 2 197 -16 196 -15 191 -57 210
-27 12 -50 15 -78 10 -30 -5 -47 -2 -65 10 l-25 16 39 78 c53 107 54 163 4
216 -19 21 -42 52 -52 70 -46 86 -113 172 -125 160z"
    />
    <path
      d="M4505 4469 c-11 -4 -44 -8 -73 -8 -29 -1 -62 -6 -73 -12 -14 -7 -55
-7 -142 1 -67 7 -129 11 -137 11 -101 -6 -154 -12 -168 -20 -19 -10 -203 -8
-219 2 -19 12 -68 11 -92 -2 -13 -7 -36 -10 -52 -7 -16 3 -45 0 -66 -8 -26 -8
-73 -11 -148 -8 -192 8 -327 0 -352 -20 -21 -17 -15 -51 27 -141 44 -94 48
-127 24 -196 -13 -34 -15 -61 -10 -104 7 -54 10 -58 50 -82 23 -13 51 -23 62
-21 43 8 80 9 100 3 26 -9 38 -56 24 -92 -10 -26 -11 -57 -6 -164 2 -56 7 -67
30 -88 32 -28 74 -29 176 -8 l72 15 39 -41 c21 -22 39 -48 39 -56 0 -9 9 -31
21 -50 12 -18 19 -40 16 -47 -11 -29 -97 -76 -138 -76 -22 0 -52 -8 -66 -17
-15 -10 -41 -22 -57 -28 -46 -15 -54 -51 -32 -136 10 -38 19 -107 20 -153 2
-46 7 -89 11 -96 11 -18 -14 -30 -65 -30 -25 0 -64 -9 -88 -20 -24 -11 -46
-19 -50 -19 -37 6 -63 -46 -61 -119 1 -26 -3 -64 -9 -84 -6 -25 -7 -52 0 -80
5 -24 7 -60 5 -81 -3 -20 1 -65 9 -98 12 -51 12 -76 2 -145 -11 -80 -21 -96
-43 -75 -19 18 -51 15 -93 -9 -52 -29 -58 -50 -42 -135 8 -43 10 -92 5 -143
-18 -182 -20 -251 -10 -397 11 -188 9 -326 -9 -475 -8 -65 4 -85 61 -105 26
-9 44 -10 56 -3 10 5 21 7 24 4 3 -2 -1 -38 -7 -78 -7 -40 -14 -95 -15 -123
-2 -27 -7 -70 -13 -94 -5 -25 -7 -54 -2 -65 4 -12 5 -41 3 -66 -6 -60 19 -86
72 -77 20 3 47 1 61 -5 22 -10 24 -15 20 -72 -2 -34 -7 -72 -10 -86 -7 -33 2
-46 45 -64 24 -10 55 -13 100 -10 108 9 257 1 286 -15 17 -9 42 -8 128 3 11 2
30 -1 43 -5 14 -6 38 -3 65 6 36 12 52 12 105 1 35 -7 74 -11 88 -8 13 2 30
-1 37 -7 7 -6 27 -10 43 -10 95 0 173 7 197 17 16 7 63 14 104 16 41 2 80 9
86 15 14 14 80 14 93 1 5 -5 25 -9 44 -9 19 0 62 0 95 0 33 -1 74 3 90 9 21 6
52 5 100 -4 38 -8 74 -12 80 -10 6 3 31 -2 55 -9 45 -13 186 -14 280 -1 56 7
83 39 83 98 -1 71 53 127 108 113 31 -8 118 39 131 71 6 15 12 61 14 102 5
105 22 167 56 195 34 29 46 58 52 127 2 29 12 73 21 98 9 25 18 70 20 100 2
30 8 77 13 105 6 28 6 62 1 79 -5 17 -8 58 -8 91 1 42 -5 73 -20 105 -11 25
-21 52 -21 59 0 29 -53 91 -87 103 -32 12 -34 14 -28 48 4 19 7 37 7 40 2 14
-33 78 -51 94 -12 11 -41 21 -68 23 -82 7 -89 15 -96 99 -3 41 -3 98 0 127 4
42 2 55 -12 67 -30 25 -109 38 -165 27 -28 -5 -53 -7 -57 -3 -4 3 -7 25 -9 49
-5 99 -21 178 -40 204 -25 34 -130 93 -166 93 -15 0 -39 -5 -55 -11 -25 -11
-72 -14 -80 -6 -1 2 6 21 17 42 11 22 20 46 20 54 0 8 3 11 6 8 4 -3 16 -1 28
5 11 7 53 13 91 14 80 3 102 13 166 75 54 52 70 79 76 128 2 20 11 58 19 85 8
27 14 62 12 79 -2 23 1 31 16 33 48 7 72 17 105 45 20 16 41 29 48 29 7 0 25
18 40 41 25 38 27 48 25 136 -1 107 -6 118 -83 195 -54 56 -62 84 -53 183 5
53 2 79 -10 109 -9 21 -16 61 -16 88 0 27 -6 63 -13 81 -8 18 -17 49 -21 69
-8 43 -44 68 -96 68 -27 0 -30 3 -24 23 3 13 -2 47 -11 75 -10 29 -15 59 -11
67 3 9 -5 39 -18 68 -13 29 -26 75 -30 102 -8 53 -25 113 -38 131 -4 6 -33 23
-64 39 -53 27 -62 28 -163 26 -201 -6 -295 -2 -331 12 -31 11 -56 14 -75 6z
m-540 -260 c4 -6 19 -7 35 -4 18 4 33 1 42 -9 9 -9 44 -16 94 -19 135 -9 186
-23 231 -65 23 -21 43 -50 46 -67 3 -16 15 -61 26 -100 29 -96 31 -107 38
-215 3 -52 10 -101 16 -107 5 -7 23 -13 39 -13 16 0 41 -9 56 -19 18 -13 51
-21 102 -25 41 -3 87 -8 102 -12 l27 -6 -4 -122 c-2 -66 -7 -145 -11 -174 -6
-47 -4 -55 16 -77 17 -18 34 -25 61 -25 81 0 112 -32 84 -86 -8 -16 -15 -39
-15 -52 0 -12 -12 -35 -27 -50 -28 -28 -59 -39 -178 -64 -33 -6 -75 -18 -93
-25 l-34 -14 3 -72 c4 -116 -3 -133 -67 -157 -30 -11 -57 -20 -60 -20 -3 0
-22 -11 -42 -25 -20 -14 -43 -25 -52 -25 -8 0 -27 -6 -41 -14 -17 -8 -44 -12
-71 -9 -72 8 -76 -1 -81 -215 l-4 -183 26 -33 c16 -21 42 -39 66 -47 22 -7 50
-23 63 -36 13 -13 31 -23 42 -23 26 0 31 -11 37 -88 3 -37 12 -74 19 -83 15
-17 94 -32 153 -30 19 1 38 -4 42 -10 4 -7 31 -11 67 -10 34 0 63 -3 67 -8 3
-5 6 -72 6 -149 1 -77 4 -143 8 -149 3 -5 21 -19 39 -32 26 -18 49 -23 120
-27 121 -6 222 -19 255 -32 16 -7 39 -12 51 -12 13 0 31 -9 41 -20 10 -11 25
-20 34 -20 9 -1 27 -7 41 -14 l24 -14 -34 -21 c-19 -11 -42 -21 -50 -21 -8 0
-28 -7 -44 -15 -15 -8 -47 -15 -70 -15 -23 0 -46 -4 -52 -10 -5 -5 -18 -11
-29 -13 -11 -2 -36 -11 -56 -19 -20 -9 -50 -19 -66 -22 -50 -11 -128 -113
-144 -188 -5 -24 -18 -55 -29 -70 -11 -14 -23 -48 -27 -75 l-8 -48 -57 -1
c-88 -2 -107 -10 -124 -49 -8 -19 -14 -50 -14 -68 0 -28 -7 -39 -35 -58 -19
-13 -35 -30 -35 -36 0 -7 -4 -13 -9 -13 -17 0 -23 -36 -28 -175 -3 -77 -7
-142 -9 -144 -2 -2 -11 2 -19 9 -12 10 -15 25 -10 64 8 76 -4 86 -114 95 -50
5 -94 10 -97 14 -3 3 -8 40 -10 84 -3 58 -9 81 -21 88 -9 6 -30 22 -46 37 -17
16 -38 28 -47 28 -19 0 -34 58 -45 171 -7 74 -32 110 -93 136 -19 8 -36 23
-39 33 -3 10 -20 26 -38 34 -26 12 -34 24 -40 53 -11 60 -14 386 -4 406 6 11
5 72 -2 168 -12 144 -14 151 -38 168 -14 10 -35 22 -46 25 -11 4 -33 23 -48
41 -21 26 -26 38 -19 52 5 10 8 58 7 106 -3 86 -2 88 24 101 25 13 83 77 108
120 7 12 12 33 13 47 0 14 9 35 21 47 11 13 24 46 29 78 9 51 36 94 61 94 4 0
26 12 48 27 52 33 69 82 54 147 -14 60 2 93 66 139 28 20 54 37 59 37 13 1 77
63 107 104 25 35 29 52 37 149 9 105 9 111 -16 163 -32 68 -62 84 -155 84
l-69 0 -7 53 c-3 28 -6 72 -6 97 0 75 -5 87 -64 120 -92 53 -130 141 -125 290
1 19 2 88 2 153 l1 117 28 0 c15 0 31 -5 34 -11z"
    />
    <path
      d="M1478 2329 c-54 -6 -74 -13 -107 -39 -38 -31 -51 -48 -57 -80 -5 -25
-15 -103 -19 -148 -2 -23 -7 -67 -10 -97 -5 -38 -3 -60 5 -70 12 -14 10 -61
-5 -161 -7 -43 11 -114 41 -159 21 -32 98 -62 118 -46 9 7 33 9 69 5 l56 -7
31 69 c36 77 38 92 46 289 3 77 10 147 14 156 10 18 4 128 -9 177 -10 33 -50
82 -86 105 -14 9 -40 11 -87 6z"
    />
    <path
      d="M7466 2328 c-53 -6 -76 -14 -101 -36 -49 -42 -54 -53 -71 -179 -19
-134 -21 -203 -7 -227 6 -11 6 -39 1 -74 -17 -104 -17 -117 -1 -167 9 -27 27
-62 41 -77 29 -31 85 -53 104 -41 7 4 40 8 72 8 l59 0 35 70 c30 60 36 82 38
155 9 215 12 267 19 300 11 56 -10 175 -37 208 -46 57 -75 69 -152 60z"
    />
    <path
      d="M9145 688 c-58 -18 -94 -21 -208 -20 -77 1 -147 -3 -157 -8 -40 -21
-54 -78 -46 -187 2 -29 -3 -75 -11 -103 -24 -84 1 -328 33 -316 5 2 34 0 63
-6 29 -5 58 -7 65 -5 6 2 14 5 18 6 4 1 40 11 80 23 52 14 97 19 153 18 114
-4 236 -1 256 5 30 10 59 68 59 119 0 26 5 56 10 67 15 28 21 175 9 223 -6 22
-14 59 -18 81 -12 57 -18 69 -49 87 -27 16 -127 39 -166 37 -12 0 -52 -10 -91
-21z"
    />
  </g>
</svg>
