<?xml version="1.0" encoding="UTF-8"?>
<!DOCTYPE svg PUBLIC "-//W3C//DTD SVG 1.1//EN" "http://www.w3.org/Graphics/SVG/1.1/DTD/svg11.dtd">
<svg xmlns="http://www.w3.org/2000/svg" version="1.1" width="144px" height="144px" style="shape-rendering:geometricPrecision; text-rendering:geometricPrecision; image-rendering:optimizeQuality; fill-rule:evenodd; clip-rule:evenodd" xmlns:xlink="http://www.w3.org/1999/xlink">
<g><path style="opacity:1" fill="#010100" d="M -0.5,-0.5 C 47.5,-0.5 95.5,-0.5 143.5,-0.5C 143.5,47.5 143.5,95.5 143.5,143.5C 95.5,143.5 47.5,143.5 -0.5,143.5C -0.5,95.5 -0.5,47.5 -0.5,-0.5 Z"/></g>
<g><path style="opacity:1" fill="#e0ec10" d="M 80.5,45.5 C 82.5,45.5 84.5,45.5 86.5,45.5C 86.5,44.5 86.5,43.5 86.5,42.5C 86.523,40.0733 87.023,37.74 88,35.5C 89.3561,34.6198 90.8561,34.2865 92.5,34.5C 92.33,33.1779 92.6634,32.0113 93.5,31C 97.5878,30.1496 101.588,29.4829 105.5,29C 106.601,31.8204 107.601,34.6538 108.5,37.5C 106.322,38.6566 104.322,39.9899 102.5,41.5C 105.027,42.2136 107.527,42.8803 110,43.5C 110.498,46.4816 110.665,49.4816 110.5,52.5C 112.223,53.807 114.057,53.807 116,52.5C 116.333,46.1667 116.667,39.8333 117,33.5C 118.487,32.7471 118.654,31.9138 117.5,31C 119.473,30.5045 121.473,30.3379 123.5,30.5C 125.17,30.7512 126.67,31.4178 128,32.5C 129.108,38.7892 129.941,45.1225 130.5,51.5C 130.131,63.4787 129.964,75.4787 130,87.5C 128.384,88.8009 126.884,88.8009 125.5,87.5C 123.735,86.5386 121.735,86.2053 119.5,86.5C 119.263,87.791 119.596,88.791 120.5,89.5C 120.192,93.0091 118.192,94.6757 114.5,94.5C 114.337,96.8568 114.503,99.1902 115,101.5C 119.227,103.818 120.727,107.151 119.5,111.5C 114.793,111.949 110.126,112.615 105.5,113.5C 104.52,110.914 104.187,108.247 104.5,105.5C 102.801,105.66 101.134,105.494 99.5,105C 98.7476,104.329 98.4142,103.496 98.5,102.5C 98.5,100.167 98.5,97.8333 98.5,95.5C 95.9407,95.1984 93.6074,95.5318 91.5,96.5C 82.5,96.5 73.5,96.5 64.5,96.5C 62.1732,96.3354 60.0065,95.6687 58,94.5C 55.595,95.2744 53.095,95.7744 50.5,96C 50.1667,96.3333 49.8333,96.6667 49.5,97C 50.7932,97.49 52.1266,97.6567 53.5,97.5C 53.1667,99.5 52.8333,101.5 52.5,103.5C 50.6203,103.229 49.287,103.896 48.5,105.5C 42.8842,107.949 38.8842,106.282 36.5,100.5C 33.4066,99.6397 30.5733,98.3064 28,96.5C 27.5034,94.1902 27.3367,91.8568 27.5,89.5C 23.3958,88.5636 19.8958,86.5636 17,83.5C 15.1719,70.2141 14.1719,56.8807 14,43.5C 14.9932,40.692 15.8266,37.8587 16.5,35C 20.9089,34.9009 25.2422,35.5676 29.5,37C 30.9218,43.5251 32.2551,50.0251 33.5,56.5C 34.8333,56.5 36.1667,56.5 37.5,56.5C 37.1872,52.9581 37.5206,49.6248 38.5,46.5C 41.1667,46.5 43.8333,46.5 46.5,46.5C 46.7373,45.209 46.404,44.209 45.5,43.5C 45.5,42.5 45.5,41.5 45.5,40.5C 41.4871,40.5079 38.4871,38.8413 36.5,35.5C 37.8624,31.9444 39.8624,28.7777 42.5,26C 44.8333,25.3333 47.1667,25.3333 49.5,26C 51.0363,29.24 50.703,32.24 48.5,35C 53.1667,35.3333 57.8333,35.6667 62.5,36C 63,36.5 63.5,37 64,37.5C 64.498,40.4816 64.6646,43.4816 64.5,46.5C 69.7968,45.7255 75.1301,45.3921 80.5,45.5 Z"/></g>
<g><path style="opacity:1" fill="#c4cf0b" d="M 123.5,30.5 C 121.473,30.3379 119.473,30.5045 117.5,31C 118.654,31.9138 118.487,32.7471 117,33.5C 116.667,39.8333 116.333,46.1667 116,52.5C 114.057,53.807 112.223,53.807 110.5,52.5C 111.5,52.5 112.5,52.5 113.5,52.5C 113.337,45.4527 113.837,38.4527 115,31.5C 117.698,29.327 120.531,28.9937 123.5,30.5 Z"/></g>
<g><path style="opacity:1" fill="#383b03" d="M 86.5,42.5 C 86.5,43.5 86.5,44.5 86.5,45.5C 84.5,45.5 82.5,45.5 80.5,45.5C 82.6391,44.8419 84.6391,43.8419 86.5,42.5 Z"/></g>
<g><path style="opacity:1" fill="#565a06" d="M 45.5,43.5 C 46.404,44.209 46.7373,45.209 46.5,46.5C 43.8333,46.5 41.1667,46.5 38.5,46.5C 41.1589,46.0826 43.4922,45.0826 45.5,43.5 Z"/></g>
<g><path style="opacity:1" fill="#080808" d="M 74.5,51.5 C 76.6208,51.3253 78.6208,51.6586 80.5,52.5C 82.4498,63.409 82.9498,74.409 82,85.5C 81.2411,87.6349 79.7411,88.9682 77.5,89.5C 74.7717,88.8546 72.1051,88.0213 69.5,87C 68.8742,86.2496 68.3742,85.4162 68,84.5C 67.3347,74.4709 67.6681,64.4709 69,54.5C 70.7189,53.1312 72.5522,52.1312 74.5,51.5 Z"/></g>
<g><path style="opacity:1" fill="#f9f9f6" d="M 74.5,51.5 C 72.5522,52.1312 70.7189,53.1312 69,54.5C 67.6681,64.4709 67.3347,74.4709 68,84.5C 68.3742,85.4162 68.8742,86.2496 69.5,87C 72.1051,88.0213 74.7717,88.8546 77.5,89.5C 79.7411,88.9682 81.2411,87.6349 82,85.5C 82.9498,74.409 82.4498,63.409 80.5,52.5C 91.1282,52.6258 97.2949,57.9591 99,68.5C 99.8273,77.0305 96.3273,83.1971 88.5,87C 79.8112,91.1409 70.8112,92.1409 61.5,90C 46.5457,74.6812 48.5457,62.0145 67.5,52C 69.8098,51.5034 72.1432,51.3367 74.5,51.5 Z"/></g>
<g><path style="opacity:1" fill="#585c05" d="M 125.5,87.5 C 123.219,87.0773 121.552,87.744 120.5,89.5C 119.596,88.791 119.263,87.791 119.5,86.5C 121.735,86.2053 123.735,86.5386 125.5,87.5 Z"/></g>
<g><path style="opacity:1" fill="#434704" d="M 91.5,96.5 C 93.6074,95.5318 95.9407,95.1984 98.5,95.5C 98.5,97.8333 98.5,100.167 98.5,102.5C 97.5386,100.735 97.2053,98.7354 97.5,96.5C 95.5,96.5 93.5,96.5 91.5,96.5 Z"/></g>
<g><path style="opacity:1" fill="#b9c30a" d="M 64.5,96.5 C 61.3752,97.4794 58.0419,97.8128 54.5,97.5C 54.3259,99.861 53.9926,102.194 53.5,104.5C 51.7839,104.629 50.1172,104.962 48.5,105.5C 49.287,103.896 50.6203,103.229 52.5,103.5C 52.8333,101.5 53.1667,99.5 53.5,97.5C 52.1266,97.6567 50.7932,97.49 49.5,97C 49.8333,96.6667 50.1667,96.3333 50.5,96C 53.095,95.7744 55.595,95.2744 58,94.5C 60.0065,95.6687 62.1732,96.3354 64.5,96.5 Z"/></g>
<g><path style="opacity:1" fill="#d3e00c" d="M 40.5,107.5 C 42.1484,109.456 42.8151,111.789 42.5,114.5C 42.38,115.586 41.7133,116.253 40.5,116.5C 35.0646,116.671 30.7312,114.671 27.5,110.5C 28.1459,108.023 29.6459,106.356 32,105.5C 34.8839,106.117 37.7172,106.784 40.5,107.5 Z"/></g>
<g><path style="opacity:1" fill="#7c8307" d="M 40.5,107.5 C 41.5,107.5 42.5,107.5 43.5,107.5C 43.8016,110.059 43.4682,112.393 42.5,114.5C 42.8151,111.789 42.1484,109.456 40.5,107.5 Z"/></g>
</svg>
